<?xml version="1.0" encoding="utf-8"?>
<!-- Generator: Adobe Illustrator 24.0.2, SVG Export Plug-In . SVG Version: 6.00 Build 0)  -->
<svg version="1.1" id="Layer_1" xmlns="http://www.w3.org/2000/svg" xmlns:xlink="http://www.w3.org/1999/xlink" x="0px" y="0px"
	 viewBox="0 0 400 225" style="enable-background:new 0 0 400 225;" xml:space="preserve">
<style type="text/css">
	.st0{fill:#56B5EF;}
	.st1{fill:none;}
	.st2{fill:#0078C8;}
	.st3{fill:#0268B4;}
	.st4{fill:#D5E3F4;}
	.st5{fill:#3E5959;}
	.st6{fill:#F47C7C;}
	.st7{fill:#B3DAFE;}
	.st8{fill:#E5EEF9;}
	.st9{fill:#FEA95C;}
	.st10{fill:#FDB97E;}
	.st11{fill:#678D98;}
	.st12{fill:#537983;}
	.st13{fill:#F9C6C6;}
	.st14{fill:#F9B1B1;}
	.st15{fill:#E94444;}
	.st16{fill:#D83131;}
	.st17{fill:#CA2C2C;}
	.st18{fill:#EE6161;}
</style>
<title>question-set</title>
<circle class="st0" cx="204" cy="113.5" r="85"/>
<rect class="st1" width="400" height="225"/>
<g>
	<path class="st2" d="M252,85.2C252,85.2,252,85.2,252,85.2l-5.5,0h-43.8v74.1c0.3,0,0.6-0.2,0.7-0.4c0.9-1.6,2.6-2.6,4.5-2.6h44
		c0,0,0,0,0,0V85.2z"/>
	<g>
		<path class="st3" d="M252,85.2h-5.5h-3.6c0.7,0,1.2,0.5,1.2,1.2v68.7c0,0.7-0.5,1.2-1.2,1.2h9.1c0.7,0,1.2-0.5,1.2-1.2
			c0-1.3,0-67.2,0-68.7C253.2,85.7,252.7,85.2,252,85.2z"/>
	</g>
	<path class="st4" d="M244.7,81.2h-38.9c-1.7,0-3,1.4-3,3v65.5h0.5c0.5-0.8,1.5-1.4,2.6-1.4h38.9V81.2z"/>
	<path class="st3" d="M202.7,159.3v-6.2v-3.4V85.2H159h-5.5c-0.7,0-1.2,0.5-1.2,1.2v31.5v8v29.2c0,0.7,0.5,1.2,1.2,1.2h44
		c1.9,0,3.6,1,4.5,2.6C202.2,159.2,202.4,159.3,202.7,159.3L202.7,159.3z"/>
	<g>
		<path class="st5" d="M237.3,92.6h-25.5c-1,0-1.8-0.8-1.8-1.8c0-1,0.8-1.8,1.8-1.8h25.5c1,0,1.8,0.8,1.8,1.8
			C239.1,91.8,238.3,92.6,237.3,92.6z"/>
	</g>
	<g>
		<path class="st5" d="M237.3,100.6h-25.5c-1,0-1.8-0.8-1.8-1.8s0.8-1.8,1.8-1.8h25.5c1,0,1.8,0.8,1.8,1.8S238.3,100.6,237.3,100.6z
			"/>
	</g>
	<g>
		<path class="st5" d="M237.3,116.7h-25.5c-1,0-1.8-0.8-1.8-1.8c0-1,0.8-1.8,1.8-1.8h25.5c1,0,1.8,0.8,1.8,1.8
			C239.1,115.9,238.3,116.7,237.3,116.7z"/>
	</g>
	<path class="st6" d="M235.3,142h-21.4c-0.9,0-1.7-0.7-1.7-1.7v-16.1c0-0.9,0.7-1.7,1.7-1.7h21.4c0.9,0,1.7,0.7,1.7,1.7v16.1
		C237,141.3,236.3,142,235.3,142z"/>
	<path class="st7" d="M202.2,149.7h0.5V84.2c0-1.7-1.4-3-3-3h-39.3c-0.8,0-1.4,0.6-1.4,1.4v64.4c0,0.8,0.6,1.4,1.4,1.4h39.3
		C200.8,148.4,201.7,148.9,202.2,149.7z"/>
	<path class="st8" d="M183.9,116v11.8l7-4.9c0.7-0.5,0.7-1.5,0-1.9L183.9,116z"/>
	<g>
		<path class="st5" d="M193.6,92.6h-25.5c-1,0-1.8-0.8-1.8-1.8c0-1,0.8-1.8,1.8-1.8h25.5c1,0,1.8,0.8,1.8,1.8
			C195.4,91.8,194.6,92.6,193.6,92.6z"/>
	</g>
	<g>
		<path class="st5" d="M193.6,100.6h-25.5c-1,0-1.8-0.8-1.8-1.8s0.8-1.8,1.8-1.8h25.5c1,0,1.8,0.8,1.8,1.8
			C195.4,99.8,194.6,100.6,193.6,100.6z"/>
	</g>
	<g>
		<path class="st5" d="M193.6,108.7h-25.5c-1,0-1.8-0.8-1.8-1.8c0-1,0.8-1.8,1.8-1.8h25.5c1,0,1.8,0.8,1.8,1.8
			C195.4,107.9,194.6,108.7,193.6,108.7z"/>
	</g>
	<g>
		<path class="st5" d="M193.6,138.8h-25.5c-1,0-1.8-0.8-1.8-1.8c0-1,0.8-1.8,1.8-1.8h25.5c1,0,1.8,0.8,1.8,1.8
			C195.4,138,194.6,138.8,193.6,138.8z"/>
	</g>
	<path class="st5" d="M233.6,105.1h-21.7c-1,0-1.8,0.8-1.8,1.8c0,1,0.8,1.8,1.8,1.8h21.7V105.1z"/>
	<g>
		<path class="st9" d="M233.6,61.9c-0.9,0-1.6-0.7-1.6-1.6v-4.7c0-0.9,0.7-1.6,1.6-1.6c0.9,0,1.6,0.7,1.6,1.6v4.7
			C235.2,61.2,234.5,61.9,233.6,61.9z"/>
	</g>
	<g>
		<path class="st9" d="M222.5,65.1c-0.4,0-0.8-0.2-1.1-0.5l-3.3-3.3c-0.6-0.6-0.6-1.6,0-2.3c0.6-0.6,1.6-0.6,2.3,0l3.3,3.3
			c0.6,0.6,0.6,1.6,0,2.3C223.3,64.9,222.9,65.1,222.5,65.1L222.5,65.1z"/>
	</g>
	<g>
		<path class="st9" d="M244.7,65.1c-0.4,0-0.8-0.2-1.1-0.5c-0.6-0.6-0.6-1.6,0-2.3l3.3-3.3c0.6-0.6,1.6-0.6,2.3,0
			c0.6,0.6,0.6,1.6,0,2.3l-3.3,3.3C245.5,64.9,245.1,65.1,244.7,65.1L244.7,65.1z"/>
	</g>
	<g>
		<path class="st9" d="M256.9,74.4h-4.7c-0.9,0-1.6-0.7-1.6-1.6s0.7-1.6,1.6-1.6h4.7c0.9,0,1.6,0.7,1.6,1.6S257.8,74.4,256.9,74.4z"
			/>
	</g>
	<g>
		<path class="st9" d="M215,74.4h-4.7c-0.9,0-1.6-0.7-1.6-1.6s0.7-1.6,1.6-1.6h4.7c0.9,0,1.6,0.7,1.6,1.6S215.9,74.4,215,74.4z"/>
	</g>
	<g>
		<path class="st7" d="M245.1,81.2h-7.3c0.8,0,1.4,0.6,1.4,1.4v64.4c0,0.8-0.6,1.4-1.4,1.4h7.3c0.8,0,1.4-0.6,1.4-1.4V82.6
			C246.5,81.8,245.9,81.2,245.1,81.2z"/>
	</g>
	<path class="st10" d="M227.6,97.7h11.9c0.8-2.3,2.1-4.4,3.8-6.2c2.5-2.6,4-6.1,3.8-10c-0.3-7-6-12.7-13-13
		c-7.7-0.3-14.1,5.9-14.1,13.5c0,3.7,1.5,7,3.8,9.4C225.6,93.3,226.9,95.4,227.6,97.7L227.6,97.7z"/>
	<path class="st11" d="M227.6,97.7h11.9v4.9c0,3.3-2.7,6-6,6s-6-2.7-6-6L227.6,97.7L227.6,97.7z"/>
	<path class="st9" d="M247.1,81.6c-0.3-7-6-12.7-13-13c-1.2,0-2.4,0.1-3.6,0.3c5.8,1.3,10.3,6.5,10.5,12.6c0.2,3.9-1.3,7.5-3.8,10
		c-1.7,1.7-3,3.9-3.8,6.2h6c0.8-2.3,2.1-4.4,3.8-6.2C245.8,89,247.3,85.5,247.1,81.6z"/>
	<path class="st12" d="M233.5,97.7v4.9c0,2.2-1.2,4.1-2.9,5.1c0.9,0.5,1.9,0.8,3,0.8c3.3,0,6-2.7,6-6v-4.9L233.5,97.7z"/>
	<path class="st13" d="M183.9,116v11.8l7-4.9c0.7-0.5,0.7-1.5,0-1.9L183.9,116z"/>
	<path class="st14" d="M190.9,122.9c0.7-0.5,0.7-1.5,0-1.9l-7-4.9v5.4l4.5,3.2L190.9,122.9z"/>
	<path class="st15" d="M154.2,116c-1,0-1.9,0.8-1.9,1.9v5.4c0-1,0.8-1.9,1.9-1.9h7.5V116H154.2z"/>
	<path class="st16" d="M161.7,117.2h22.2v10.6h-22.2V117.2z"/>
	<path class="st6" d="M152.3,119.1v6.8c0,1,0.8,1.9,1.9,1.9h7.5v-10.6h-7.5C153.1,117.2,152.3,118,152.3,119.1z"/>
	<path class="st17" d="M161.7,116h22.2v5.4h-22.2V116z"/>
	<path class="st18" d="M152.3,117.9v5.4c0-1,0.8-1.9,1.9-1.9h7.5V116h-7.5C153.1,116,152.3,116.8,152.3,117.9z"/>
</g>
</svg>
